# Blender v3.1.2 OBJ File: ''
# www.blender.org
mtllib boo.mtl
o boo_(1)
v 0.854530 2.845180 1.463531
v 0.000000 2.821470 0.797371
v 0.000000 3.013021 1.323641
v -0.854530 2.845180 1.463531
v 1.839370 0.660580 -0.046150
v 3.167331 2.115490 1.946051
v 1.767310 0.763700 1.878191
v 0.000000 1.074020 3.064321
v 1.355420 1.750490 3.142941
v 2.100190 2.904950 3.508771
v 3.465421 3.487460 2.445541
v 2.437090 4.052400 3.794952
v 3.075731 5.212361 3.064092
v 3.786431 4.401421 1.683461
v 3.746301 3.144820 0.750301
v 3.175231 1.925370 -0.043740
v 3.733741 4.128511 -0.524309
v 2.790531 2.319071 -1.869680
v 3.205781 4.063561 -1.934250
v 1.687520 2.935481 -3.477900
v 1.617930 1.075661 -1.935130
v 2.022571 6.261121 3.733822
v 1.883461 4.864411 4.228302
v 1.790620 4.074510 4.072792
v 1.583410 2.585400 3.447431
v 1.021530 1.846290 3.174451
v 0.000000 1.301190 3.047861
v -1.021530 1.846290 3.174451
v -1.355420 1.750490 3.142941
v -1.583410 2.585400 3.447431
v -2.100190 2.904950 3.508771
v -1.790620 4.074510 4.072792
v -2.437090 4.052400 3.794952
v -1.883461 4.864411 4.228302
v -3.075731 5.212361 3.064092
v -2.022571 6.261121 3.733822
v -3.175231 1.925370 -0.043740
v -3.167331 2.115490 1.946051
v -3.746301 3.144820 0.750301
v -3.465421 3.487460 2.445541
v -3.786431 4.401421 1.683461
v -1.767310 0.763700 1.878191
v -1.839370 0.660580 -0.046150
v -2.790531 2.319071 -1.869680
v -1.617930 1.075661 -1.935130
v -1.687520 2.935481 -3.477900
v -3.205781 4.063561 -1.934250
v -3.733741 4.128511 -0.524309
v -4.522211 4.267701 -0.156579
v -4.578261 3.622371 0.678101
v -4.578261 4.427411 1.294071
v -4.578261 5.012171 0.489891
v -3.760911 5.335441 0.524911
v -3.287141 6.157091 2.095962
v -5.331192 4.301881 0.065511
v -5.367971 3.901091 0.609311
v -5.348951 4.383971 1.001491
v -5.368082 4.794741 0.492891
v -5.697422 4.341201 0.529171
v 0.000000 6.436891 4.198212
v 0.000000 7.800881 2.861362
v -2.050350 7.319331 2.549092
v -3.251381 6.628432 0.533991
v -3.065151 6.461751 -0.877649
v -2.794291 5.741951 -2.174290
v -1.931880 5.164011 -3.517660
v -0.929260 4.144252 -4.665350
v 0.000000 3.129642 -4.669541
v -0.493210 4.119302 -5.764551
v 0.000000 3.706762 -5.885871
v 0.000000 4.093262 -6.166721
v 0.493210 4.119302 -5.764551
v -1.564230 6.805182 -2.412869
v -1.812891 7.697052 -1.030539
v -1.969950 7.935722 0.754582
v 0.000000 8.458312 0.964652
v 0.000000 8.145092 -1.149059
v 0.000000 7.339343 -2.539119
v 0.000000 6.080552 -3.624450
v 0.000000 4.873612 -4.838060
v 0.000000 4.475212 -5.729730
v 0.929260 4.144252 -4.665350
v 1.931880 5.164011 -3.517660
v 2.794291 5.741951 -2.174290
v 1.564230 6.805182 -2.412869
v 3.065151 6.461751 -0.877649
v 1.812891 7.697052 -1.030539
v 3.251381 6.628432 0.533991
v 1.969950 7.935722 0.754582
v 2.050350 7.319331 2.549092
v 3.760911 5.335441 0.524911
v 3.287141 6.157091 2.095962
v 4.578261 5.012171 0.489891
v 4.522211 4.267701 -0.156579
v 4.578261 3.622371 0.678101
v 4.578261 4.427411 1.294071
v 5.348951 4.383971 1.001491
v 5.368082 4.794741 0.492891
v 5.697422 4.341201 0.529171
v 5.331192 4.301881 0.065511
v 5.367971 3.901091 0.609311
v 1.751970 4.717761 0.079901
v 0.000000 5.039701 -0.362599
v 0.000000 1.812330 1.834151
v -1.751970 4.717761 0.079901
v 0.000000 3.831840 4.534991
v 0.000000 4.776350 4.656692
v 0.484400 2.844570 2.176351
v 0.000000 2.330750 2.868201
v 0.967230 2.189560 2.536571
v 0.649230 1.624070 2.960301
v 0.000000 1.334580 2.974001
v -0.649230 1.624070 2.960301
v -0.967230 2.189560 2.536571
v -0.484400 2.844570 2.176351
v 0.644250 3.642051 3.648701
v 0.802690 4.481291 3.522812
v 0.345770 3.640590 4.165251
v 0.363890 4.758690 4.214742
v 0.000000 3.641410 3.647501
v 0.302860 3.211760 3.770881
v 0.000000 4.480031 3.588722
v -0.363890 4.758690 4.214742
v -0.345770 3.640590 4.165251
v -0.802690 4.481291 3.522812
v -0.644250 3.642051 3.648701
v -0.302860 3.211760 3.770881
v -0.667390 4.541000 3.398801
v -1.214710 4.819221 4.309102
v -0.755700 3.551440 3.558221
v -1.126040 3.550430 4.162131
v -1.042220 2.978130 3.670891
v -1.493820 3.552221 3.589021
v -1.755401 4.542450 3.414232
v 0.667390 4.541000 3.398801
v 0.755700 3.551440 3.558221
v 1.214710 4.819221 4.309102
v 1.126040 3.550430 4.162131
v 1.755401 4.542450 3.414232
v 1.493820 3.552221 3.589021
v 1.042220 2.978130 3.670891
v 0.000000 2.043081 -3.537671
v 0.000000 0.725410 -1.949740
v 0.000000 0.275720 -0.013040
v 0.000000 0.472160 1.960001
vt 0.162100 0.187500
vt 0.128900 0.176800
vt 0.116200 0.204100
vt 0.162100 0.187500
vt 0.112300 0.181600
vt 0.112300 0.181600
vt 0.112300 0.181600
vt 0.112300 0.181600
vt 0.112300 0.181600
vt 0.112300 0.181600
vt 0.112300 0.181600
vt 0.112300 0.181600
vt 0.112300 0.181600
vt 0.112300 0.181600
vt 0.112300 0.181600
vt 0.112300 0.181600
vt 0.112300 0.181600
vt 0.112300 0.181600
vt 0.112300 0.181600
vt 0.112300 0.181600
vt 0.112300 0.181600
vt 0.112300 0.181600
vt 0.112300 0.181600
vt 0.112300 0.181600
vt 0.112300 0.181600
vt 0.112300 0.181600
vt 0.112300 0.181600
vt 0.112300 0.181600
vt 0.112300 0.181600
vt 0.112300 0.181600
vt 0.112300 0.181600
vt 0.112300 0.181600
vt 0.112300 0.181600
vt 0.112300 0.181600
vt 0.112300 0.181600
vt 0.112300 0.181600
vt 0.112300 0.181600
vt 0.112300 0.181600
vt 0.112300 0.181600
vt 0.112300 0.181600
vt 0.112300 0.181600
vt 0.112300 0.181600
vt 0.112300 0.181600
vt 0.112300 0.181600
vt 0.112300 0.181600
vt 0.112300 0.181600
vt 0.112300 0.181600
vt 0.112300 0.181600
vt 0.112300 0.181600
vt 0.112300 0.181600
vt 0.112300 0.181600
vt 0.112300 0.181600
vt 0.112300 0.181600
vt 0.112300 0.181600
vt 0.112300 0.181600
vt 0.112300 0.181600
vt 0.112300 0.181600
vt 0.112300 0.181600
vt 0.112300 0.181600
vt 0.112300 0.181600
vt 0.112300 0.181600
vt 0.112300 0.181600
vt 0.112300 0.181600
vt 0.112300 0.181600
vt 0.112300 0.181600
vt 0.112300 0.181600
vt 0.112300 0.181600
vt 0.112300 0.181600
vt 0.112300 0.181600
vt 0.112300 0.181600
vt 0.112300 0.181600
vt 0.112300 0.181600
vt 0.112300 0.181600
vt 0.112300 0.181600
vt 0.112300 0.181600
vt 0.112300 0.181600
vt 0.112300 0.181600
vt 0.112300 0.181600
vt 0.112300 0.181600
vt 0.112300 0.181600
vt 0.112300 0.181600
vt 0.112300 0.181600
vt 0.112300 0.181600
vt 0.112300 0.181600
vt 0.112300 0.181600
vt 0.112300 0.181600
vt 0.112300 0.181600
vt 0.112300 0.181600
vt 0.112300 0.181600
vt 0.112300 0.181600
vt 0.112300 0.181600
vt 0.112300 0.181600
vt 0.112300 0.181600
vt 0.112300 0.181600
vt 0.112300 0.181600
vt 0.112300 0.181600
vt 0.112300 0.181600
vt 0.112300 0.181600
vt 0.112300 0.181600
vt 0.112300 0.181600
vt 0.112300 0.181600
vt 0.794900 0.294900
vt 0.613300 0.328100
vt 0.613300 0.146500
vt 0.794900 0.294900
vt 0.889600 0.122100
vt 0.912100 0.326200
vt 0.613300 0.377000
vt 0.912100 0.326200
vt 0.889600 0.122100
vt 0.754900 0.036100
vt 0.613300 0.028300
vt 0.754900 0.036100
vt 0.316400 0.371100
vt 0.038100 0.334000
vt 0.346700 0.490200
vt 0.033200 0.477500
vt 0.049800 0.748000
vt 0.356400 0.738300
vt 0.356400 0.738300
vt 0.346700 0.490200
vt 0.316400 0.371100
vt 0.839800 0.595700
vt 0.752000 0.638700
vt 0.805700 0.536100
vt 0.751000 0.470700
vt 0.869100 0.484400
vt 0.806600 0.426800
vt 0.752000 0.419900
vt 0.806600 0.426800
vt 0.869100 0.484400
vt 0.805700 0.536100
vt 0.839800 0.595700
vt 0.112300 0.181600
vt 0.112300 0.181600
vt 0.112300 0.181600
vt 0.112300 0.181600
vt 0.112300 0.181600
vt 0.112300 0.181600
vt 0.112300 0.181600
vt 0.112300 0.181600
vt 0.112300 0.181600
vt 0.112300 0.181600
vt 0.112300 0.181600
vt 0.112300 0.181600
vt 0.112300 0.181600
vt 0.112300 0.181600
vt 0.112300 0.181600
vt 0.112300 0.181600
vt 0.112300 0.181600
vt 0.112300 0.181600
vt 0.112300 0.181600
vt 0.112300 0.181600
vt 0.112300 0.181600
vt 0.112300 0.181600
vt 0.112300 0.181600
vt 0.112300 0.181600
vt 0.112300 0.181600
vt 0.112300 0.181600
vt 0.112300 0.181600
vt 0.112300 0.181600
vt 0.112300 0.181600
vt 0.112300 0.181600
vn 0.3556 0.9309 0.0837
vn 0.2339 0.9136 -0.3325
vn -0.0000 0.9958 -0.0918
vn -0.2339 0.9136 -0.3325
vn -0.3556 0.9309 0.0837
vn 0.4700 -0.8777 -0.0932
vn 0.7695 -0.5320 0.3532
vn 0.4432 -0.8322 0.3331
vn -0.0000 -0.5571 0.8305
vn 0.2812 -0.5131 0.8110
vn 0.7695 -0.5321 0.3532
vn 0.4260 -0.4285 0.7968
vn 0.8585 -0.2076 0.4690
vn 0.6043 -0.1766 0.7769
vn 0.8028 0.1720 0.5710
vn 0.8607 0.0665 0.5047
vn 0.8663 -0.4984 0.0331
vn 0.8211 -0.5553 -0.1321
vn 0.8616 -0.0684 -0.5030
vn 0.7834 -0.4375 -0.4415
vn 0.8769 -0.0451 -0.4785
vn 0.7833 -0.4375 -0.4415
vn 0.6090 -0.3924 -0.6894
vn 0.6090 -0.3924 -0.6893
vn 0.4459 -0.7741 -0.4494
vn 0.4786 0.4689 0.7424
vn 0.4262 0.0629 0.9024
vn 0.8027 0.1720 0.5710
vn 0.0769 -0.5686 0.8190
vn -0.5269 -0.0608 0.8477
vn -0.5269 -0.0608 0.8478
vn -0.3848 0.2304 0.8938
vn 0.0000 0.4726 0.8813
vn 0.3848 0.2304 0.8938
vn -0.2812 -0.5131 0.8110
vn 0.5269 -0.0608 0.8478
vn 0.5269 -0.0608 0.8477
vn -0.4260 -0.4285 0.7968
vn -0.0769 -0.5686 0.8190
vn -0.6043 -0.1766 0.7769
vn -0.4262 0.0629 0.9024
vn -0.8028 0.1720 0.5710
vn -0.4786 0.4689 0.7424
vn -0.8027 0.1720 0.5710
vn -0.8211 -0.5553 -0.1321
vn -0.7695 -0.5320 0.3532
vn -0.8663 -0.4984 0.0331
vn -0.8585 -0.2076 0.4690
vn -0.8607 0.0665 0.5047
vn -0.4432 -0.8322 0.3331
vn -0.7695 -0.5321 0.3532
vn -0.4700 -0.8777 -0.0932
vn -0.7834 -0.4375 -0.4415
vn -0.7833 -0.4375 -0.4415
vn -0.4459 -0.7741 -0.4494
vn -0.6090 -0.3924 -0.6893
vn -0.6090 -0.3924 -0.6894
vn -0.8769 -0.0451 -0.4785
vn -0.8616 -0.0684 -0.5030
vn -0.3608 -0.0565 -0.9309
vn -0.4342 -0.8939 0.1117
vn -0.4343 -0.8938 0.1117
vn -0.4342 -0.8938 0.1117
vn -0.4030 0.1623 0.9007
vn -0.8607 0.0665 0.5048
vn -0.3195 0.9403 -0.1174
vn -0.8460 0.5283 -0.0722
vn -0.8420 0.4402 0.3119
vn -0.4906 -0.0856 -0.8672
vn -0.4905 -0.0856 -0.8672
vn -0.5445 -0.8332 0.0967
vn -0.4029 0.1623 0.9007
vn -0.5387 0.0952 0.8371
vn -0.3194 0.9403 -0.1174
vn -0.5149 0.8530 -0.0858
vn -0.5149 0.8529 -0.0858
vn -0.9997 -0.0079 -0.0248
vn -0.0000 0.5023 0.8647
vn 0.0000 0.8527 0.5224
vn -0.4962 0.7556 0.4275
vn -0.8302 0.5573 -0.0140
vn -0.8143 0.4897 -0.3116
vn -0.7828 0.3702 -0.5002
vn -0.6364 0.3031 -0.7093
vn -0.6364 0.3031 -0.7094
vn -0.7350 -0.0009 -0.6781
vn -0.6089 -0.3924 -0.6894
vn 0.0000 -0.7358 -0.6772
vn -0.8284 0.0684 -0.5559
vn -0.0000 -0.7921 -0.6104
vn -0.0000 0.0776 -0.9970
vn 0.8284 0.0684 -0.5559
vn -0.4446 0.6498 -0.6165
vn -0.4765 0.8116 -0.3380
vn -0.4926 0.8685 0.0546
vn 0.0000 0.9947 0.1027
vn -0.0000 0.9447 -0.3278
vn 0.0000 0.7646 -0.6445
vn 0.0000 0.6630 -0.7486
vn -0.6363 0.3031 -0.7094
vn 0.0000 0.7666 -0.6421
vn -0.0000 0.8596 -0.5110
vn 0.7350 -0.0009 -0.6781
vn 0.6364 0.3031 -0.7093
vn 0.6363 0.3031 -0.7094
vn 0.7828 0.3702 -0.5002
vn 0.4446 0.6498 -0.6165
vn 0.8143 0.4897 -0.3116
vn 0.4765 0.8116 -0.3380
vn 0.8302 0.5573 -0.0140
vn 0.4926 0.8685 0.0546
vn 0.4962 0.7556 0.4275
vn 0.6089 -0.3924 -0.6894
vn 0.6364 0.3031 -0.7094
vn 0.8460 0.5283 -0.0722
vn 0.8420 0.4402 0.3119
vn 0.3195 0.9403 -0.1174
vn 0.3608 -0.0565 -0.9309
vn 0.4342 -0.8939 0.1117
vn 0.4343 -0.8938 0.1117
vn 0.4342 -0.8938 0.1117
vn 0.4030 0.1623 0.9007
vn 0.8607 0.0665 0.5048
vn 0.5387 0.0952 0.8371
vn 0.3194 0.9403 -0.1174
vn 0.5149 0.8530 -0.0858
vn 0.9997 -0.0079 -0.0248
vn 0.4905 -0.0856 -0.8672
vn 0.5149 0.8529 -0.0858
vn 0.4906 -0.0856 -0.8672
vn 0.5445 -0.8332 0.0967
vn 0.4029 0.1623 0.9007
vn -0.6970 -0.3772 0.6099
vn 0.0000 -0.5733 0.8194
vn 0.0000 0.8119 0.5838
vn 0.6970 -0.3772 0.6099
vn 0.0000 -0.7849 0.6196
vn -0.6970 -0.3772 0.6098
vn 0.6970 -0.3772 0.6098
vn 0.3848 0.2303 0.8938
vn 0.6969 -0.3772 0.6099
vn -0.6914 -0.3765 0.6166
vn -0.3848 0.2303 0.8938
vn -0.0000 0.0632 0.9980
vn 0.1780 0.8835 0.4334
vn 0.0000 0.5467 0.8373
vn 0.4311 0.5829 0.6888
vn 0.1672 0.2769 0.9462
vn 0.0000 0.1056 0.9944
vn -0.1672 0.2769 0.9462
vn -0.4311 0.5829 0.6888
vn -0.1780 0.8835 0.4334
vn 0.8413 -0.2376 0.4855
vn 0.8456 -0.0537 0.5311
vn 0.0228 -0.3415 0.9396
vn 0.0227 -0.0226 0.9995
vn -0.0000 -0.2752 0.9614
vn -0.0442 -0.6739 0.7375
vn 0.0000 0.0699 0.9976
vn 0.0000 -0.2751 0.9614
vn -0.0227 -0.0226 0.9995
vn -0.0228 -0.3415 0.9396
vn -0.8456 -0.0537 0.5311
vn -0.8413 -0.2376 0.4855
vn 0.0442 -0.6739 0.7375
vn 0.8578 0.0062 0.5139
vn -0.0248 -0.1136 0.9932
vn 0.8475 -0.1240 0.5162
vn 0.0220 -0.3524 0.9356
vn 0.1259 -0.6355 0.7618
vn -0.8096 -0.2749 0.5187
vn -0.8334 -0.1225 0.5389
vn 0.0220 -0.3523 0.9356
vn -0.8578 0.0062 0.5139
vn -0.8475 -0.1240 0.5162
vn 0.0248 -0.1136 0.9932
vn -0.0220 -0.3524 0.9356
vn -0.0220 -0.3523 0.9356
vn 0.8334 -0.1225 0.5389
vn 0.8096 -0.2749 0.5187
vn -0.1259 -0.6355 0.7618
vn 0.0000 -0.7076 -0.7066
vn -0.0000 -0.8998 -0.4363
vn 0.0000 -0.9975 -0.0710
vn 0.0000 -0.9558 0.2942
vn 0.0000 -0.9557 0.2942
usemtl boo_mat.001
s 1
f 1/1/1 2/2/2 3/3/3
f 2/2/4 4/4/5 3/3/3
f 5/5/6 6/6/7 7/7/8
f 8/8/9 7/7/8 9/9/10
f 7/7/8 6/6/11 9/9/10
f 9/9/10 6/6/7 10/10/12
f 6/6/7 11/11/13 10/10/12
f 10/10/12 11/11/13 12/12/14
f 12/12/14 11/11/13 13/13/15
f 13/13/15 11/11/13 14/14/16
f 14/14/16 11/11/13 15/15/17
f 11/11/13 6/6/7 15/15/17
f 6/6/7 16/16/18 15/15/17
f 15/15/17 16/16/18 17/17/19
f 16/16/18 18/18/20 17/17/19
f 17/17/19 18/18/20 19/19/21
f 19/19/21 18/18/22 20/20/23
f 20/20/24 18/18/20 21/21/25
f 21/21/25 18/18/22 5/5/6
f 18/18/20 16/16/18 5/5/6
f 5/5/6 16/16/18 6/6/7
f 22/22/26 23/23/27 13/13/28
f 13/13/15 23/23/27 12/12/14
f 23/23/27 24/24/29 12/12/14
f 12/12/14 24/24/29 10/10/12
f 24/24/29 25/25/30 10/10/12
f 10/10/12 25/25/30 9/9/10
f 25/25/31 26/26/32 9/9/10
f 9/9/10 26/26/32 8/8/9
f 26/26/32 27/27/33 8/8/9
f 27/27/33 28/28/34 8/8/9
f 8/8/9 28/28/34 29/29/35
f 28/28/34 30/30/36 29/29/35
f 29/29/35 30/30/37 31/31/38
f 30/30/37 32/32/39 31/31/38
f 31/31/38 32/32/39 33/33/40
f 32/32/39 34/34/41 33/33/40
f 33/33/40 34/34/41 35/35/42
f 34/34/41 36/36/43 35/35/44
f 37/37/45 38/38/46 39/39/47
f 38/38/46 40/40/48 39/39/47
f 39/39/47 40/40/48 41/41/49
f 41/41/49 40/40/48 35/35/42
f 35/35/42 40/40/48 33/33/40
f 33/33/40 40/40/48 31/31/38
f 40/40/48 38/38/46 31/31/38
f 31/31/38 38/38/46 29/29/35
f 8/8/9 29/29/35 42/42/50
f 29/29/35 38/38/51 42/42/50
f 42/42/50 38/38/46 43/43/52
f 38/38/46 37/37/45 43/43/52
f 37/37/45 44/44/53 43/43/52
f 43/43/52 44/44/54 45/45/55
f 45/45/55 44/44/53 46/46/56
f 46/46/57 44/44/54 47/47/58
f 47/47/58 44/44/53 48/48/59
f 44/44/53 37/37/45 48/48/59
f 37/37/45 39/39/47 48/48/59
f 48/48/59 39/39/47 49/49/60
f 49/49/60 39/39/47 50/50/61
f 39/39/47 41/41/49 50/50/62
f 50/50/63 41/41/49 51/51/64
f 51/51/64 41/41/65 52/52/66
f 52/52/66 41/41/49 53/53/67
f 41/41/49 54/54/68 53/53/67
f 53/53/67 48/48/59 52/52/66
f 48/48/59 49/49/60 52/52/66
f 52/52/66 49/49/60 55/55/69
f 49/49/60 50/50/62 55/55/69
f 55/55/70 50/50/61 56/56/71
f 50/50/63 51/51/64 56/56/71
f 56/56/71 51/51/72 57/57/73
f 51/51/64 52/52/74 57/57/73
f 57/57/73 52/52/74 58/58/75
f 52/52/66 55/55/70 58/58/76
f 58/58/75 55/55/70 59/59/77
f 55/55/70 56/56/71 59/59/77
f 56/56/71 57/57/73 59/59/77
f 59/59/77 57/57/73 58/58/75
f 60/60/78 61/61/79 36/36/43
f 61/61/79 62/62/80 36/36/43
f 36/36/43 62/62/80 54/54/68
f 62/62/80 63/63/81 54/54/68
f 54/54/68 63/63/81 53/53/67
f 63/63/81 64/64/82 53/53/67
f 53/53/67 64/64/82 48/48/59
f 64/64/82 65/65/83 48/48/59
f 48/48/59 65/65/83 47/47/58
f 65/65/83 66/66/84 47/47/58
f 47/47/58 66/66/85 46/46/56
f 66/66/85 67/67/86 46/46/56
f 46/46/87 67/67/86 68/68/88
f 67/67/86 69/69/89 68/68/88
f 68/68/88 69/69/89 70/70/90
f 69/69/89 71/71/91 70/70/90
f 71/71/91 72/72/92 70/70/90
f 70/70/90 72/72/92 68/68/88
f 66/66/84 65/65/83 73/73/93
f 65/65/83 64/64/82 73/73/93
f 73/73/93 64/64/82 74/74/94
f 64/64/82 63/63/81 74/74/94
f 74/74/94 63/63/81 75/75/95
f 63/63/81 62/62/80 75/75/95
f 62/62/80 61/61/79 75/75/95
f 61/61/79 76/76/96 75/75/95
f 75/75/95 76/76/96 74/74/94
f 76/76/96 77/77/97 74/74/94
f 77/77/97 78/78/98 74/74/94
f 74/74/94 78/78/98 73/73/93
f 78/78/98 79/79/99 73/73/93
f 73/73/93 79/79/99 66/66/100
f 79/79/99 80/80/101 66/66/100
f 66/66/84 80/80/101 67/67/86
f 67/67/86 80/80/101 69/69/89
f 80/80/101 81/81/102 69/69/89
f 69/69/89 81/81/102 71/71/91
f 71/71/91 81/81/102 72/72/92
f 81/81/102 80/80/101 72/72/92
f 72/72/92 80/80/101 82/82/103
f 82/82/103 80/80/101 83/83/104
f 80/80/101 79/79/99 83/83/105
f 84/84/106 85/85/107 86/86/108
f 85/85/107 87/87/109 86/86/108
f 86/86/108 87/87/109 88/88/110
f 87/87/109 89/89/111 88/88/110
f 88/88/110 89/89/111 90/90/112
f 90/90/112 89/89/111 61/61/79
f 61/61/79 89/89/111 76/76/96
f 89/89/111 87/87/109 76/76/96
f 76/76/96 87/87/109 77/77/97
f 77/77/97 87/87/109 78/78/98
f 87/87/109 85/85/107 78/78/98
f 78/78/98 85/85/107 79/79/99
f 79/79/99 85/85/107 83/83/105
f 85/85/107 84/84/106 83/83/104
f 72/72/92 82/82/103 68/68/88
f 68/68/88 82/82/103 20/20/113
f 82/82/103 83/83/114 20/20/24
f 20/20/24 83/83/114 19/19/21
f 83/83/104 84/84/106 19/19/21
f 19/19/21 84/84/106 17/17/19
f 84/84/106 86/86/108 17/17/19
f 17/17/19 86/86/108 91/91/115
f 86/86/108 88/88/110 91/91/115
f 91/91/115 88/88/110 92/92/116
f 88/88/110 90/90/112 92/92/116
f 92/92/116 90/90/112 22/22/26
f 90/90/112 61/61/79 22/22/26
f 22/22/26 61/61/79 60/60/78
f 22/22/26 13/13/15 92/92/116
f 13/13/15 14/14/16 92/92/116
f 92/92/116 14/14/16 91/91/115
f 14/14/16 93/93/117 91/91/115
f 91/91/115 93/93/117 17/17/19
f 93/93/117 94/94/118 17/17/19
f 17/17/19 94/94/118 15/15/17
f 94/94/118 95/95/119 15/15/17
f 15/15/17 95/95/120 14/14/16
f 95/95/121 96/96/122 14/14/16
f 14/14/123 96/96/122 93/93/117
f 96/96/122 97/97/124 93/93/125
f 93/93/125 97/97/124 98/98/126
f 97/97/124 99/99/127 98/98/126
f 99/99/127 100/100/128 98/98/126
f 98/98/129 100/100/128 93/93/117
f 93/93/117 100/100/130 94/94/118
f 100/100/130 95/95/120 94/94/118
f 100/100/128 101/101/131 95/95/119
f 95/95/121 101/101/131 96/96/122
f 96/96/132 101/101/131 97/97/124
f 97/97/124 101/101/131 99/99/127
f 101/101/131 100/100/128 99/99/127
f 41/41/49 35/35/42 54/54/68
f 35/35/42 36/36/43 54/54/68
f 102/102/133 103/103/134 104/104/135
f 103/103/134 105/105/136 104/104/135
f 25/106/30 24/107/29 102/102/133
f 24/107/29 106/108/137 102/102/138
f 102/102/133 106/108/137 103/103/134
f 103/103/134 106/108/137 105/105/136
f 106/108/137 32/109/39 105/105/139
f 32/109/39 30/110/37 105/105/136
f 30/110/37 28/111/140 105/105/136
f 105/105/141 28/111/34 104/104/135
f 28/111/34 27/112/33 104/104/135
f 27/112/33 26/113/32 104/104/135
f 104/104/135 26/113/32 102/102/142
f 26/113/143 25/106/30 102/102/133
f 32/114/39 106/115/137 34/116/41
f 106/115/137 107/117/144 34/116/41
f 107/117/144 60/118/78 34/116/41
f 34/116/41 60/118/78 36/119/43
f 22/120/26 60/118/78 23/121/27
f 60/118/78 107/117/144 23/121/27
f 107/117/144 106/115/137 23/121/27
f 23/121/27 106/115/137 24/122/29
f 1/123/1 3/124/3 108/125/145
f 3/124/3 109/126/146 108/125/145
f 109/126/146 110/127/147 108/125/145
f 108/125/145 110/127/147 1/123/1
f 110/127/147 109/126/146 111/128/148
f 111/128/148 109/126/146 112/129/149
f 112/129/149 109/126/146 113/130/150
f 113/130/150 109/126/146 114/131/151
f 109/126/146 115/132/152 114/131/151
f 114/131/151 115/132/152 4/133/5
f 4/133/5 115/132/152 3/124/3
f 115/132/152 109/126/146 3/124/3
f 116/134/153 117/135/154 118/136/155
f 117/135/154 119/137/156 118/136/155
f 119/137/156 120/138/157 118/136/155
f 120/138/157 121/139/158 118/136/155
f 118/136/155 121/139/158 116/134/153
f 119/137/156 122/140/159 120/138/160
f 122/140/159 123/141/161 120/138/160
f 120/138/157 123/141/161 124/142/162
f 123/141/161 125/143/163 124/142/162
f 125/143/163 126/144/164 124/142/162
f 126/144/164 127/145/165 124/142/162
f 124/142/162 127/145/165 120/138/157
f 128/146/166 129/147/167 130/148/168
f 129/147/167 131/149/169 130/148/168
f 130/148/168 131/149/169 132/150/170
f 132/150/170 131/149/169 133/151/171
f 133/151/171 131/149/169 134/152/172
f 131/149/173 129/147/167 134/152/172
f 135/153/174 136/154/175 137/155/176
f 136/154/175 138/156/177 137/155/176
f 137/155/176 138/156/178 139/157/179
f 139/157/179 138/156/177 140/158/180
f 140/158/180 138/156/177 141/159/181
f 138/156/177 136/154/175 141/159/181
f 68/68/88 20/20/24 142/160/182
f 20/20/113 21/21/25 142/160/182
f 142/160/182 21/21/25 143/161/183
f 21/21/25 5/5/6 143/161/183
f 143/161/183 5/5/6 144/162/184
f 5/5/6 7/7/8 144/162/184
f 144/162/184 7/7/8 145/163/185
f 7/7/8 8/8/9 145/163/186
f 8/8/9 42/42/50 145/163/186
f 145/163/185 42/42/50 144/162/184
f 42/42/50 43/43/52 144/162/184
f 144/162/184 43/43/52 143/161/183
f 43/43/52 45/45/55 143/161/183
f 143/161/183 45/45/55 142/160/182
f 45/45/55 46/46/87 142/160/182
f 142/160/182 46/46/56 68/68/88
