# Blender v3.1.2 OBJ File: ''
# www.blender.org
mtllib goomba.mtl
o goomba.001
v 1.101244 -0.033786 1.300012
v 0.102473 -0.029134 -0.387425
v 1.791287 -0.022787 1.581371
v 2.601620 -0.024833 1.111843
v 2.699133 -0.035632 0.376107
v 1.808025 -0.030541 -1.375606
v 0.692379 -0.033246 -1.334515
v -1.153503 -0.033786 1.300012
v -1.843557 -0.022787 1.581371
v -0.154733 -0.029134 -0.387425
v -2.653889 -0.024833 1.111843
v -0.744649 -0.033246 -1.334515
v -1.860295 -0.030541 -1.375606
v -2.751392 -0.035632 0.376107
v 1.324355 3.598055 2.128281
v 2.106332 3.443242 2.449773
v 1.941698 4.662359 2.297067
v 2.086869 3.603843 1.510099
v -1.311819 3.598055 2.128281
v -2.074344 3.603843 1.510099
v -1.929163 4.662359 2.297067
v -2.093796 3.443242 2.449773
v 1.007733 4.524584 3.151644
v 0.879859 5.841892 2.340185
v -1.080653 4.525552 3.148251
v -0.897196 5.848080 2.334445
v -1.943016 4.162160 1.876276
v -2.026875 5.593330 1.527157
v -1.553514 7.059813 1.077252
v -0.007905 7.210922 1.740667
v 1.537705 7.058864 1.066123
v 2.011125 5.592960 1.527067
v 1.966750 4.160903 1.940662
v -0.956512 4.133286 3.011105
v 0.991455 4.125341 3.008210
v -2.521105 3.823571 2.002144
v -2.718226 5.500090 0.731476
v -2.131514 6.966712 -0.052557
v -1.065073 7.808114 0.789755
v 1.049263 7.808114 0.789755
v 2.115704 6.966831 -0.052557
v 2.702446 5.505789 0.727783
v 2.505485 3.823531 2.002044
v -3.694580 4.223134 -1.310710
v -2.718236 5.737524 -1.018990
v -1.065073 7.733048 -1.335112
v -0.007905 8.183453 -0.036308
v 1.049263 7.733048 -1.335112
v 2.702426 5.737074 -1.018990
v 3.596458 4.239443 -1.311358
v 3.596458 4.040974 0.968350
v 2.818813 2.934500 2.074155
v 1.303185 4.076664 3.054072
v 1.342191 3.208762 3.235313
v -1.319065 4.089290 3.051078
v -0.005629 3.865290 2.409521
v 1.186230 5.994091 -2.530086
v -1.201651 5.994291 -2.530086
v -1.450083 4.337415 -3.253117
v -2.617619 3.210651 -2.335930
v -3.681445 3.056077 -0.033824
v -3.583493 3.938830 0.961513
v -2.833664 2.934500 2.074165
v -2.485833 2.467618 -0.113381
v -0.016149 2.596102 -2.124067
v -0.007436 3.148041 -3.186375
v -1.358060 3.208762 3.235313
v -0.007436 2.970081 2.916486
v -0.005789 2.639986 1.617842
v 2.478397 2.477249 -0.031070
v -0.027048 2.487639 -0.031688
v 1.434264 4.337415 -3.253117
v 2.602738 3.097448 -2.335930
v 3.694580 3.056077 -0.033824
v 2.692555 7.102121 0.154755
v 2.059642 7.805539 0.706515
v 2.049441 7.359566 0.687611
v 1.396676 7.514688 1.402297
v 1.509339 7.205293 1.271189
v 0.690373 6.600145 2.118960
v 0.763553 6.457309 2.081741
v 0.146229 6.203946 2.318776
v 0.163486 6.093439 2.290580
v -0.163246 6.093439 2.290580
v -0.145989 6.203946 2.318776
v -0.763313 6.457309 2.081741
v -0.690144 6.600145 2.118960
v -1.509100 7.205293 1.271189
v -1.396436 7.514688 1.402297
v -2.049212 7.359566 0.687611
v -2.059402 7.805539 0.706515
v -2.692316 7.102121 0.154755
v -0.026120 7.555090 -0.093378
v -1.745994 1.666507 -0.160940
v -0.869499 1.666507 1.266606
v -1.533383 0.909492 0.174645
v -0.026130 0.909492 1.161907
v 0.817229 1.666507 1.266606
v -0.931370 1.666508 -1.360016
v -0.819465 0.909492 -1.072109
v -0.026130 0.487683 -0.107204
v 1.481124 0.909492 0.174645
v 1.693735 1.666507 -0.160940
v 0.879101 1.666508 -1.360016
v 0.767196 0.909492 -1.072109
v -0.019163 0.651428 -0.539932
v -0.029473 0.659473 -0.521278
v -1.219806 0.784462 1.537485
v -1.900677 1.634279 0.796749
v -2.309002 1.065073 1.359977
v -2.921994 0.783484 0.551850
v -1.792375 0.660860 -1.567328
v -0.993131 1.196800 -0.893283
v -0.646058 0.645121 -1.504448
v 0.593799 0.645121 -1.504448
v 0.940872 1.196800 -0.893273
v 1.740116 0.660860 -1.567328
v 1.848408 1.634279 0.796749
v 2.869725 0.783484 0.551850
v 2.256743 1.065073 1.359977
v 1.167536 0.784462 1.537485
v -0.016389 0.664603 -0.521178
v -0.032777 0.659403 -0.542218
vt 0.369100 0.903300
vt 0.387700 0.667000
vt 0.283200 0.978500
vt 0.119100 0.977500
vt 0.024400 0.917000
vt 0.007800 0.659200
vt 0.190400 0.603500
vt 0.369100 0.903300
vt 0.283200 0.978500
vt 0.387700 0.667000
vt 0.119100 0.977500
vt 0.190400 0.603500
vt 0.007800 0.659200
vt 0.024400 0.917000
vt 0.703100 0.004900
vt 0.671900 0.005900
vt 0.688500 0.038100
vt 0.703100 0.004900
vt 0.671900 0.005900
vt 0.671900 0.005900
vt 0.703100 0.004900
vt 0.688500 0.038100
vt 0.671900 0.005900
vt 0.703100 0.004900
vt 0.840800 0.557600
vt 0.831100 0.780300
vt 0.617200 0.559600
vt 0.629900 0.781300
vt 0.536100 0.524400
vt 0.509800 0.738300
vt 0.549800 0.987300
vt 0.733400 0.991200
vt 0.917000 0.987300
vt 0.958000 0.738300
vt 0.926800 0.525400
vt 0.047900 0.103500
vt 0.029300 0.106400
vt 0.031300 0.122100
vt 0.031300 0.122100
vt 0.029300 0.106400
vt 0.047900 0.103500
vt 0.099600 0.193400
vt 0.062500 0.073200
vt 0.130900 0.177700
vt 0.112300 0.257800
vt 0.172900 0.252000
vt 0.124000 0.303700
vt 0.084000 0.266600
vt 0.124000 0.303700
vt 0.112300 0.257800
vt 0.172900 0.252000
vt 0.130900 0.177700
vt 0.099600 0.193400
vt 0.062500 0.073200
vt 0.046900 0.102500
vt 0.231400 0.085900
vt 0.217800 0.184600
vt 0.228500 0.305700
vt 0.178700 0.324200
vt 0.228500 0.305700
vt 0.217800 0.184600
vt 0.231400 0.085900
vt 0.110400 0.081100
vt 0.072300 0.042000
vt 0.021500 0.078100
vt 0.034200 0.051800
vt 0.039100 0.086900
vt 0.022500 0.095700
vt 0.279300 0.198200
vt 0.279300 0.198200
vt 0.311500 0.100600
vt 0.273400 0.039100
vt 0.172900 0.038100
vt 0.110400 0.081100
vt 0.072300 0.042000
vt 0.172900 0.019500
vt 0.269500 0.016600
vt 0.311500 0.046900
vt 0.034200 0.051800
vt 0.036100 0.033200
vt 0.095700 0.011700
vt 0.172900 0.019500
vt 0.172900 0.006800
vt 0.311500 0.100600
vt 0.273400 0.039100
vt 0.172900 0.038100
vt 0.864300 0.149400
vt 0.829100 0.166000
vt 0.829100 0.129900
vt 0.795900 0.166000
vt 0.795900 0.130900
vt 0.749000 0.164100
vt 0.749000 0.131800
vt 0.719700 0.162100
vt 0.719700 0.133800
vt 0.719700 0.133800
vt 0.719700 0.162100
vt 0.749000 0.131800
vt 0.749000 0.164100
vt 0.795900 0.130900
vt 0.795900 0.166000
vt 0.829100 0.129900
vt 0.829100 0.166000
vt 0.864300 0.149400
vt 0.625000 0.284200
vt 0.660200 0.240200
vt 0.505900 0.250000
vt 0.623000 0.196300
vt 0.578100 0.181600
vt 0.578100 0.181600
vt 0.623000 0.196300
vt 0.660200 0.240200
vt 0.625000 0.284200
vt 0.726600 0.125000
vt 0.717800 0.059600
vt 0.723600 0.059600
vt 0.720700 0.049800
vt 0.726600 0.049800
vt 0.729500 0.059600
vt 0.713900 0.125000
vt 0.713900 0.059600
vt 0.713900 0.049800
vt 0.727500 0.046900
vt 0.732400 0.049800
vt 0.735400 0.059600
vt 0.738300 0.059600
vt 0.738300 0.049800
vt 0.744100 0.049800
vt 0.744100 0.059600
vt 0.741200 0.125000
vt 0.884800 0.241200
vt 0.882800 0.241200
vt 0.695300 0.233400
vt 0.717800 0.289100
vt 0.671900 0.236300
vt 0.695300 0.233400
vt 0.884800 0.241200
vt 0.873000 0.306600
vt 0.922900 0.245100
vt 0.870100 0.305700
vt 0.910200 0.177700
vt 0.871100 0.184600
vt 0.710900 0.186500
vt 0.699200 0.186500
vt 0.699200 0.186500
vt 0.710900 0.186500
vt 0.872100 0.183600
vt 0.922900 0.245100
vt 0.873000 0.306600
vt 0.884800 0.241200
vt 0.717800 0.289100
vt 0.695300 0.233400
vt 0.671900 0.236300
vt 0.695300 0.233400
vt 0.882800 0.242200
vt 0.884800 0.241200
vt 0.884800 0.242200
vt 0.870100 0.305700
vt 0.871100 0.184600
vt 0.710900 0.186500
vt 0.699200 0.186500
vt 0.699200 0.186500
vt 0.710900 0.186500
vt 0.872100 0.183600
vt 0.910200 0.177700
vn -0.4892 -0.7062 0.5118
vn -0.7381 -0.6728 0.0504
vn 0.0952 -0.6263 0.7738
vn 0.6967 -0.4932 0.5209
vn 0.6862 -0.7111 -0.1534
vn 0.4301 -0.6662 -0.6093
vn 0.0004 -1.0000 0.0022
vn -0.3458 -0.7236 -0.5974
vn 0.4889 -0.7064 0.5119
vn -0.0952 -0.6263 0.7738
vn 0.7372 -0.6738 0.0502
vn -0.6207 -0.6317 0.4644
vn 0.3455 -0.7237 -0.5974
vn -0.4301 -0.6662 -0.6093
vn -0.6862 -0.7111 -0.1534
vn -0.8625 0.4710 0.1849
vn 0.5749 0.1777 0.7987
vn 0.0935 0.9700 0.2244
vn 0.4302 0.5759 -0.6952
vn 0.8625 0.4710 0.1849
vn -0.4302 0.5759 -0.6952
vn -0.0935 0.9700 0.2244
vn -0.5749 0.1777 0.7987
vn 0.3813 0.0872 0.9203
vn 0.3164 0.4993 0.8066
vn -0.4252 0.0474 0.9039
vn -0.3130 0.5030 0.8057
vn -0.3296 0.2210 0.9179
vn -0.6691 0.3657 0.6470
vn -0.6182 0.5421 0.5691
vn 0.0014 0.6394 0.7688
vn 0.6197 0.5409 0.5688
vn 0.6670 0.3721 0.6455
vn 0.3526 0.1912 0.9160
vn -0.2886 -0.7105 0.6417
vn 0.3306 -0.6826 0.6517
vn -0.5328 0.4389 0.7236
vn -0.8140 0.4580 0.3573
vn -0.7924 0.6085 0.0426
vn -0.4096 0.8249 0.3896
vn 0.4110 0.8231 0.3919
vn 0.7921 0.6088 0.0436
vn 0.8116 0.4661 0.3521
vn 0.5330 0.4249 0.7317
vn -0.9152 0.1556 -0.3718
vn -0.8014 0.5133 -0.3069
vn -0.3781 0.7871 -0.4874
vn 0.0000 0.9994 0.0332
vn 0.3781 0.7871 -0.4874
vn 0.8094 0.5012 -0.3061
vn 0.9058 0.1834 -0.3820
vn 0.8918 0.2244 0.3929
vn 0.6030 -0.5283 0.5977
vn 0.2474 0.7984 0.5489
vn 0.2903 -0.4017 0.8685
vn -0.2463 0.8030 0.5427
vn -0.0423 0.4523 0.8909
vn 0.3495 0.4807 -0.8042
vn -0.3494 0.4808 -0.8042
vn -0.3508 0.1030 -0.9308
vn -0.5418 -0.5430 -0.6416
vn -0.8410 -0.5407 -0.0184
vn -0.8983 0.1871 0.3975
vn -0.6094 -0.5252 0.5940
vn -0.2466 -0.9680 -0.0466
vn -0.0123 -0.9535 -0.3011
vn -0.0094 -0.5711 -0.8208
vn -0.2904 -0.4017 0.8685
vn -0.0000 -0.9102 0.4141
vn -0.0002 -0.9823 0.1874
vn 0.2352 -0.9717 -0.0203
vn 0.0017 -0.9998 0.0209
vn 0.3522 0.1102 -0.9294
vn 0.5412 -0.5609 -0.6265
vn 0.8518 -0.5234 -0.0222
vn 0.6260 -0.0473 0.7784
vn 0.6917 -0.0464 0.7207
vn 0.6796 -0.0440 0.7323
vn 0.7316 -0.0264 0.6813
vn 0.7304 -0.0158 0.6829
vn 0.5472 0.0446 0.8358
vn 0.5241 0.0394 0.8507
vn 0.4076 -0.1506 0.9007
vn 0.4117 -0.1644 0.8964
vn -0.4117 -0.1644 0.8964
vn -0.4076 -0.1506 0.9006
vn -0.5241 0.0394 0.8507
vn -0.5472 0.0446 0.8358
vn -0.7304 -0.0158 0.6829
vn -0.7316 -0.0264 0.6813
vn -0.6796 -0.0440 0.7323
vn -0.6917 -0.0464 0.7207
vn -0.6260 -0.0473 0.7784
vn 0.0000 1.0000 -0.0039
vn -0.9975 -0.0034 -0.0706
vn -0.4867 -0.0667 0.8710
vn -0.7560 -0.6288 0.1819
vn 0.0000 -0.6727 0.7399
vn 0.4867 -0.0667 0.8710
vn -0.4666 -0.0591 -0.8825
vn -0.3701 -0.6728 -0.6406
vn 0.0000 -1.0000 -0.0086
vn 0.7560 -0.6288 0.1819
vn 0.9975 -0.0034 -0.0706
vn 0.4666 -0.0591 -0.8825
vn 0.3701 -0.6728 -0.6406
vn 0.9536 0.2834 -0.1014
vn 0.8119 0.5094 0.2851
vn 0.4865 0.3320 0.8081
vn -0.0864 0.9779 0.1902
vn -0.4664 0.4778 0.7445
vn -0.9419 0.3353 -0.0194
vn -0.4259 0.3285 -0.8430
vn 0.1936 0.9209 -0.3383
vn 0.4832 0.2653 -0.8343
vn -0.4825 0.2644 -0.8350
vn -0.1921 0.9212 -0.3384
vn 0.4259 0.3285 -0.8430
vn 0.0865 0.9779 0.1902
vn 0.9419 0.3354 -0.0194
vn 0.4664 0.4778 0.7445
vn -0.4867 0.3319 0.8080
vn -0.5634 0.7946 0.2261
vn -0.9395 0.3369 -0.0624
usemtl goomba_tex.001
s 1
f 1/1/1 2/2/2 3/3/3
f 2/2/2 4/4/4 3/3/3
f 5/5/5 4/4/4 6/6/6
f 4/4/7 2/2/2 6/6/6
f 6/6/6 2/2/2 7/7/8
f 8/8/9 9/9/10 10/10/11
f 9/9/10 11/11/12 10/10/11
f 12/12/13 10/10/11 13/13/14
f 10/10/11 11/11/12 13/13/14
f 13/13/14 11/11/12 14/14/15
f 15/15/16 16/16/17 17/17/18
f 16/16/17 18/18/19 17/17/18
f 17/17/18 18/18/19 15/19/16
f 19/20/20 20/21/21 21/22/22
f 20/21/21 22/23/23 21/22/22
f 21/22/22 22/23/23 19/24/20
f 23/25/24 24/26/25 25/27/26
f 24/26/25 26/28/27 25/27/26
f 27/29/28 25/27/26 28/30/29
f 25/27/26 26/28/27 28/30/29
f 28/30/29 26/28/27 29/31/30
f 29/31/30 26/28/27 30/32/31
f 26/28/27 24/26/25 30/32/31
f 30/32/31 24/26/25 31/33/32
f 31/33/32 24/26/25 32/34/33
f 24/26/25 23/25/24 32/34/33
f 32/34/33 23/25/24 33/35/34
f 27/36/28 34/37/35 25/38/26
f 25/38/26 34/37/35 23/39/24
f 34/37/35 35/40/36 23/39/24
f 23/39/24 35/40/36 33/41/34
f 27/36/28 28/42/29 36/43/37
f 36/43/37 28/42/29 37/44/38
f 28/42/29 29/45/30 37/44/38
f 37/44/38 29/45/30 38/46/39
f 38/46/39 29/45/30 39/47/40
f 29/45/30 30/48/31 39/47/40
f 39/47/40 30/48/31 40/49/41
f 30/48/31 31/50/32 40/49/41
f 40/49/41 31/50/32 41/51/42
f 41/51/42 31/50/32 42/52/43
f 31/50/32 32/53/33 42/52/43
f 42/52/43 32/53/33 43/54/44
f 32/53/33 33/55/34 43/54/44
f 44/56/45 37/44/38 45/57/46
f 37/44/38 38/46/39 45/57/46
f 45/57/46 38/46/39 46/58/47
f 38/46/39 39/47/40 46/58/47
f 46/58/47 39/47/40 47/59/48
f 39/47/40 40/49/41 47/59/48
f 47/59/48 40/49/41 48/60/49
f 40/49/41 41/51/42 48/60/49
f 48/60/49 41/51/42 49/61/50
f 41/51/42 42/52/43 49/61/50
f 49/61/50 42/52/43 50/62/51
f 50/62/51 42/52/43 51/63/52
f 42/52/43 43/54/44 51/63/52
f 51/63/52 43/54/44 52/64/53
f 43/54/44 53/65/54 52/64/53
f 52/64/53 53/65/54 54/66/55
f 54/66/55 53/65/54 55/67/56
f 53/65/54 56/68/57 55/67/56
f 47/59/48 48/60/49 46/58/47
f 49/61/50 57/69/58 48/60/49
f 48/60/49 57/69/58 46/58/47
f 57/69/58 58/70/59 46/58/47
f 46/58/47 58/70/59 45/57/46
f 58/70/59 59/71/60 45/57/46
f 45/57/46 59/71/60 44/56/45
f 59/71/60 60/72/61 44/56/45
f 60/72/61 61/73/62 44/56/45
f 44/56/45 61/73/62 62/74/63
f 62/74/63 61/73/62 63/75/64
f 63/75/64 61/73/62 64/76/65
f 61/73/62 60/72/61 64/76/65
f 64/76/65 60/72/61 65/77/66
f 65/77/66 60/72/61 66/78/67
f 60/72/61 59/71/60 66/78/67
f 44/56/45 62/74/63 37/44/38
f 37/44/38 62/74/63 36/43/37
f 62/74/63 63/75/64 36/43/37
f 36/43/37 63/75/64 55/67/56
f 63/75/64 67/79/68 55/67/56
f 55/67/56 67/79/68 54/66/55
f 67/79/68 68/80/69 54/66/55
f 54/66/55 68/80/69 52/64/53
f 68/80/69 69/81/70 52/64/53
f 52/64/53 69/81/70 70/82/71
f 69/81/70 71/83/72 70/82/71
f 70/82/71 71/83/72 65/77/66
f 65/77/66 71/83/72 64/76/65
f 71/83/72 69/81/70 64/76/65
f 64/76/65 69/81/70 63/75/64
f 69/81/70 68/80/69 63/75/64
f 63/75/64 68/80/69 67/79/68
f 57/69/58 49/61/50 72/84/73
f 49/61/50 50/62/51 72/84/73
f 50/62/51 73/85/74 72/84/73
f 72/84/73 73/85/74 66/78/67
f 66/78/67 73/85/74 65/77/66
f 65/77/66 73/85/74 70/82/71
f 73/85/74 74/86/75 70/82/71
f 70/82/71 74/86/75 52/64/53
f 52/64/53 74/86/75 51/63/52
f 51/63/52 74/86/75 50/62/51
f 74/86/75 73/85/74 50/62/51
f 66/78/67 59/71/60 72/84/73
f 72/84/73 59/71/60 57/69/58
f 59/71/60 58/70/59 57/69/58
f 75/87/76 76/88/77 77/89/78
f 76/88/77 78/90/79 77/89/78
f 77/89/78 78/90/79 79/91/80
f 78/90/79 80/92/81 79/91/80
f 79/91/80 80/92/81 81/93/82
f 80/92/81 82/94/83 81/93/82
f 81/93/82 82/94/83 83/95/84
f 84/96/85 85/97/86 86/98/87
f 85/97/86 87/99/88 86/98/87
f 86/98/87 87/99/88 88/100/89
f 87/99/88 89/101/90 88/100/89
f 88/100/89 89/101/90 90/102/91
f 89/101/90 91/103/92 90/102/91
f 90/102/91 91/103/92 92/104/93
f 53/105/54 43/106/44 56/107/57
f 43/106/44 33/108/34 56/107/57
f 33/108/34 35/109/36 56/107/57
f 35/109/36 34/110/35 56/107/57
f 34/110/35 27/111/28 56/107/57
f 27/111/28 36/112/37 56/107/57
f 56/107/57 36/112/37 55/113/56
f 93/114/94 94/115/95 95/116/96
f 94/115/95 96/117/97 95/116/96
f 96/117/97 97/118/98 95/116/96
f 97/118/98 98/119/99 95/116/96
f 95/116/96 98/119/99 93/114/94
f 93/120/94 99/121/100 94/115/95
f 99/121/100 100/122/101 94/115/95
f 94/115/95 100/122/101 96/117/97
f 100/122/101 101/123/102 96/117/97
f 96/117/97 101/123/102 97/118/98
f 101/123/102 102/124/103 97/118/98
f 97/118/98 102/124/103 98/119/99
f 102/124/103 103/125/104 98/119/99
f 98/119/99 103/125/104 93/114/94
f 93/114/94 103/125/104 104/126/105
f 104/126/105 103/125/104 105/127/106
f 103/125/104 102/124/103 105/127/106
f 102/124/103 101/123/102 105/127/106
f 101/123/102 100/128/101 105/127/106
f 105/127/106 100/128/101 104/126/105
f 100/128/101 99/129/100 104/126/105
f 104/126/105 99/129/100 93/130/94
f 106/131/107 107/132/108 108/133/109
f 107/132/108 109/134/110 108/133/109
f 108/133/109 109/134/110 110/135/111
f 110/135/111 109/134/110 111/136/112
f 111/136/112 109/134/110 112/137/113
f 109/134/110 113/138/114 112/137/113
f 112/137/113 113/138/114 114/139/115
f 109/134/110 107/132/108 113/140/114
f 107/132/108 106/131/107 113/140/114
f 113/140/114 106/131/107 114/139/115
f 106/131/107 12/141/13 114/139/115
f 114/139/115 12/141/13 112/137/113
f 12/141/13 13/142/14 112/137/113
f 13/142/14 14/143/15 112/137/113
f 112/137/113 14/143/15 111/136/112
f 14/143/15 11/144/12 111/136/112
f 111/136/112 11/144/12 110/135/111
f 11/144/12 9/145/10 110/135/111
f 110/135/111 9/145/10 108/133/109
f 9/145/10 8/146/9 108/133/109
f 108/133/109 8/146/9 106/131/107
f 8/146/9 10/147/11 106/131/107
f 10/147/11 12/141/13 106/131/107
f 115/148/116 116/149/117 117/150/118
f 116/149/117 118/151/119 117/150/118
f 117/150/118 118/151/119 119/152/120
f 119/152/120 118/151/119 120/153/121
f 120/153/121 118/151/119 121/154/122
f 118/151/119 122/155/123 121/154/122
f 121/154/122 122/155/123 123/156/124
f 115/148/116 123/157/124 116/158/117
f 123/157/124 122/155/123 116/158/117
f 116/158/117 122/155/123 118/151/119
f 6/159/6 117/150/118 5/160/5
f 117/150/118 119/152/120 5/160/5
f 5/160/5 119/152/120 4/161/4
f 119/152/120 120/153/121 4/161/4
f 4/161/4 120/153/121 3/162/3
f 120/153/121 121/154/122 3/162/3
f 3/162/3 121/154/122 1/163/1
f 121/154/122 123/156/124 1/163/1
f 1/163/1 123/156/124 2/164/2
f 2/164/2 123/156/124 7/165/8
f 123/156/124 115/148/116 7/165/8
f 115/148/116 117/150/118 7/165/8
f 7/165/8 117/150/118 6/159/6
